<svg width="2290" height="1256" xmlns="http://www.w3.org/2000/svg">
 <!-- Created with Method Draw - http://github.com/duopixel/Method-Draw/ -->
 <g>
  <title>background</title>
  <rect fill="#fff" id="canvas_background" height="1258" width="2292" y="-1" x="-1"/>
  <g display="none" overflow="visible" y="0" x="0" height="100%" width="100%" id="canvasGrid">
   <rect fill="url(#gridpattern)" stroke-width="0" y="0" x="0" height="100%" width="100%"/>
  </g>
 </g>
 <g>
  <title>Layer 1</title>
  <path id="DCbox" class="state" d="m1853.4446,755.17092l222.98805,-0.00001l-1.14942,48.27577l-222.41335,-1.72413l0.57472,-46.55163z" fill-opacity="null" stroke-opacity="null" stroke-width='1.5' stroke='{bordercolor}' fill='transparent'/>
  <path id="AKbox" class="state" d="m99.42509,958.61879l286.20633,1.72413l-2.29885,218.39037l-288.50517,-4.02298l4.59769,-216.09152z" fill-opacity="null" stroke-opacity="null" stroke-width='{borderwidth}' stroke='{bordercolor}' fill='{fillcolor}'/>
  <path id="HIbox" class="state" d="m410.91872,1016.08994l249.42479,2.87355l-2.29884,158.04566c0,0.00001 -251.14893,-0.5747 -251.14893,-1.14941l4.02298,-159.7698z" fill-opacity="null" stroke-opacity="null" stroke-width='{borderwidth}' stroke='{bordercolor}' fill='{fillcolor}'/>
  <path id="ID" class="state" d="m345.36585,156.09755l-1.95122,137.56099l20.48781,27.80487l-21.46342,80.97561l0.97561,82.43903l199.02439,0l-0.4878,-102.43903l-19.5122,0.48781l-58.04878,-15.12195l-25.85365,-87.80488l-51.70732,-60l-0.48781,-64.39024l-40.97561,0.48779z" fill-opacity="null" stroke-opacity="null" stroke-width='{borderwidth}' stroke='{bordercolor}' fill='{fillcolor}'/>
  <path id="WA" class="state" d="m113.17073,156.09755l212.68293,-1.4634l-0.97561,134.14634l-80.97561,0.97561l-89.26829,20.4878l-36.58537,-30.73171l-29.7561,-4.39024l-19.02439,-89.26829l15.12195,4.87805c0,0.48779 2.43903,10.73169 2.43903,10.73169c0,0 39.02439,-2.43902 39.02439,-2.92681l-12.68293,-42.43904z" fill-opacity="null" stroke-opacity="null" stroke-width='{borderwidth}' stroke='{bordercolor}' fill='{fillcolor}'/>
  <path id="MT" class="state" d="m412.19512,156.58535l-1.95122,51.21952l47.80488,56.09756l26.34146,84.39024l46.82927,13.65854l13.17073,-0.4878l-0.4878,-15.60976l264.39024,2.92683l0.97561,-191.21951l-397.07317,-0.97562z" fill-opacity="null" stroke-opacity="null" stroke-width='{borderwidth}' stroke='{bordercolor}' fill='{fillcolor}'/>
  <path id="OR" class="state" d="m143.41463,336.09755l111.21951,-24.39023l72.68293,1.46341l12.68293,17.07317l-17.56098,72.68293l0.4878,80.97561l-236.09756,-0.4878l-2.92683,-41.46341l11.21951,-51.70732l0,-90.2439l13.17073,3.90244l35.12195,32.19511z" fill-opacity="null" stroke-opacity="null" stroke-width='{borderwidth}' stroke='{bordercolor}' fill='{fillcolor}'/>
  <path id="WY" class="state" d="m567.80488,370.24389l0.97561,167.31709l238.53658,-0.97561l-0.97561,-166.82927l-238.53658,0.48779z" fill-opacity="null" stroke-opacity="null" stroke-width='{borderwidth}' stroke='{bordercolor}' fill='{fillcolor}'/>
  <path id="CA" class="state" d="m214.63415,504.39023l0,138.04879l193.65854,171.70732l19.5122,37.56098l-26.82927,58.04878l-65.36585,0l-14.14634,-28.78049l-109.26829,-60.4878l-70.73171,-120.4878l-27.31707,-35.60976l-38.53659,-106.34146l9.7561,-54.14634l129.26829,0.48779z" fill-opacity="null" stroke-opacity="null" stroke-width='{borderwidth}' stroke='{bordercolor}' fill='{fillcolor}'/>
  <path id="NV" class="state" d="m236.58537,507.80487l-0.97561,126.82928l170.73171,151.21951l0.4878,-23.41463l30.73171,-0.97561l0,-256.09756l-200.97561,2.43901z" fill-opacity="null" stroke-opacity="null" stroke-width='{borderwidth}' stroke='{bordercolor}' fill='{fillcolor}'/>
  <path id="UT" class="state" d="m459.5122,507.80487c0,0 0.97561,208.29268 0.4878,208.29268c-0.4878,0 160.4878,0.4878 160,0.4878c-0.4878,0 -1.46341,-158.53659 -1.46341,-159.02438c0,0.48779 -80,0.48779 -80,0c0,0.48779 -1.95122,-51.70733 -1.95122,-52.19512c0,0.48779 -77.07317,2.43901 -77.07317,2.43901z" fill-opacity="null" stroke-opacity="null" stroke-width='{borderwidth}' stroke='{bordercolor}' fill='{fillcolor}'/>
  <path id="AZ" class="state" d="m460.4878,737.07316l158.04878,1.46343l-1.95122,211.70732l-91.70732,-0.97561l-98.04878,-40l26.34146,-55.60976l-21.95122,-39.5122l-1.95122,-32.19512l30.73171,-0.97561l0.48781,-43.90245z" fill-opacity="null" stroke-opacity="null" stroke-width='{borderwidth}' stroke='{bordercolor}' fill='{fillcolor}'/>
  <path id="NM" class="state" d="m642.92683,738.53657c0,0 -2.92683,211.70732 -2.92683,211.21952c0,0.48779 61.95122,0.9756 61.95122,0.4878c0,0.48779 -0.97561,-20.00001 -0.97561,-20.4878c0,0.48779 132.68293,-0.48782 132.68293,-0.97561c0,0.48779 1.46342,-188.29269 1.46341,-188.78049c0,0.48779 -192.19512,-1.46343 -192.19512,-1.46343z" fill-opacity="null" stroke-opacity="null" stroke-width='{borderwidth}' stroke='{bordercolor}' fill='{fillcolor}'/>
  <path id="CO" class="state" d="m646.34146,559.51218c0,0 0,157.56098 0,157.07318c0,0.48779 230.2439,0.9756 230.2439,0.4878c0,0.48779 -0.4878,-157.07318 -0.4878,-157.56098c0,0.48779 -229.7561,-0.00001 -229.7561,-0.00001z" fill-opacity="null" stroke-opacity="null" stroke-width='{borderwidth}' stroke='{bordercolor}' fill='{fillcolor}'/>
  <path id="ND" class="state" d="m832.19512,159.99999l-1.46342,135.12196l233.65854,0l0.97561,-135.60976l-233.17073,0.48779z" fill-opacity="null" stroke-opacity="null" stroke-width='{borderwidth}' stroke='{bordercolor}' fill='{fillcolor}'/>
  <path id="SD" class="state" d="m829.7561,317.56096l1.95122,128.29269l200.4878,-2.43902l51.21951,15.12195l0.97561,-105.85366l-15.60976,-38.53659l-239.02439,3.41462z" fill-opacity="null" stroke-opacity="null" stroke-width='{borderwidth}' stroke='{bordercolor}' fill='{fillcolor}'/>
  <path id="NE" class="state" d="m830.2439,469.75609l-0.48781,67.31708l68.78049,1.46341l-0.4878,50.2439l220.97561,1.95122l-0.4878,-16.09756l-32.68293,-78.53659l-1.46341,-15.12195l-40.4878,-12.68293l-213.65854,1.4634z" fill-opacity="null" stroke-opacity="null" stroke-width='{borderwidth}' stroke='{bordercolor}' fill='{fillcolor}'/>
  <path id="MN" class="state" d="m1084.87805,162.92682l49.26829,-0.4878c0,0.4878 182.43903,42.43902 182.43903,42.43902c0,0 -39.5122,23.41463 -39.5122,22.92684c0,0.48779 -40,34.14633 -40,33.65853c0,0.4878 -17.56097,116.58536 -17.56098,116.09757c0.00001,0.48779 41.95122,43.90242 41.95122,43.41463c0,0.48779 -152.19512,1.4634 -152.19512,0.97561c0,0.48779 -1.95122,-49.26831 -1.95122,-49.7561c0,0.48779 3.41464,-21.95123 3.41464,-22.43902c0,0.48779 -26.34147,-49.26831 -26.34147,-49.7561l0.48781,-137.07318z" fill-opacity="null" stroke-opacity="null" stroke-width='{borderwidth}' stroke='{bordercolor}' fill='{fillcolor}'/>
  <path id="MI2" class="state" d="m1398.53659,241.95121l5.85366,23.41465l41.46341,17.56098l66.34146,-6.82927l30.2439,20.97561l-52.68293,5.85366l-63.41463,20.97561l-16.58537,-27.80488l-61.46341,-9.7561l-10.2439,-13.17073l60.48781,-31.21952z" fill-opacity="null" stroke-opacity="null" stroke-width='{borderwidth}' stroke='{bordercolor}' fill='{fillcolor}'/>
  <path id="MI" class="state" d="m1528.78049,333.17072c0,0 44.87805,14.63415 44.87805,14.14635c0,0.48779 -23.90244,66.34145 -23.90244,65.85366c0,0.48779 27.80488,11.70731 27.80488,11.21951c0,0.48779 3.41464,-5.85367 3.41463,-6.34146c0,0.48779 9.7561,5.36584 9.7561,4.87805c0,0.48779 2.43903,40.48779 2.43902,40c0,0.48779 -27.31707,40.9756 -27.31707,40.4878c0,0.48779 -100.97561,0.9756 -100.97561,0.4878c0,0.48779 30.73171,-124.87806 30.73171,-125.36585c0,0.48779 14.14634,-1.46343 14.14634,-1.95122c0,0.48779 19.02439,-43.41465 19.02439,-43.41465z" fill-opacity="null" stroke-opacity="null" stroke-width='{borderwidth}' stroke='{bordercolor}' fill='{fillcolor}'/>
  <path id="WI" class="state" d="m1318.53659,278.04877l13.65853,14.14635l-0.4878,13.65854l60.4878,7.80488l20.48781,26.82926l-15.60976,31.70732l10.2439,29.7561l-7.80488,72.19512l-75.12195,-0.97561l-34.14634,-58.53658c0,0.48779 -49.26829,-46.82928 -49.26829,-47.31709c0,-0.4878 16.58537,-81.95122 16.58536,-82.43901c0.00001,0.48779 33.17074,-11.21953 33.17074,-11.70732c0,0.48779 5.85366,8.29267 5.85366,7.80488l21.95122,-2.92684z" fill-opacity="null" stroke-opacity="null" stroke-width='{borderwidth}' stroke='{bordercolor}' fill='{fillcolor}'/>
  <path id="IA" class="state" d="m1105.85366,440.9756l-0.48781,34.63416l27.80488,79.5122l132.19512,1.95122l42.43902,-66.34146l-30.73171,-49.26829l-171.21951,-0.48782z" fill-opacity="null" stroke-opacity="null" stroke-width='{borderwidth}' stroke='{bordercolor}' fill='{fillcolor}'/>
  <path id="KS" class="state" d="m897.07317,607.31706l-0.4878,108.7805l253.17073,3.41463l1.46341,-65.36585l-27.80488,-45.36585l-226.34146,-1.46343z" fill-opacity="null" stroke-opacity="null" stroke-width='{borderwidth}' stroke='{bordercolor}' fill='{fillcolor}'/>
  <path id="MO" class="state" d="m1141.95122,575.60974l0,11.70733l32.19512,52.68293l-1.95122,101.95122l164.39024,5.36585l13.65854,-23.41463l-79.02439,-110.73171l-6.34146,-37.07317l-122.92683,-0.48782z" fill-opacity="null" stroke-opacity="null" stroke-width='{borderwidth}' stroke='{bordercolor}' fill='{fillcolor}'/>
  <path id="OK" class="state" d="m1151.21951,742.43901l-0.48781,114.14635l-73.17073,-0.4878l-104.39024,-30.73171l-1.95122,-54.14634l-113.17073,-2.43902l0,-31.21951l293.17073,4.87804z" fill-opacity="null" stroke-opacity="null" stroke-width='{borderwidth}' stroke='{bordercolor}' fill='{fillcolor}'/>
  <path id="TX" class="state" d="m855.12195,792.68291c0,0 94.14634,0.4878 94.14634,0.00001c0,0.48779 -1.46341,48.29267 -1.46341,47.80488c0,0.48779 122.43902,36.58535 122.43902,36.09756c0,0.48779 85.36585,1.95121 85.36585,1.46341c0,0.48779 18.53659,16.09755 18.04878,16.09755c-0.4878,0 -0.97561,134.63415 -0.97561,134.14635c0,0.48779 -89.7561,53.65853 -89.7561,53.17073c0,0.48779 -2.43902,9.75609 -2.43902,9.26829c0,0.48779 -38.04878,35.60974 -38.04878,35.12195c0,0.48779 1.46342,49.75609 1.46341,49.26829c0,0.48779 -50.73171,-21.95123 -50.73171,-22.43902c0,0.48779 -86.34146,-126.34147 -86.34146,-126.82927c0,0.48779 -60.4878,0.48779 -60.4878,0c0,0.48779 -10.2439,25.36584 -10.2439,24.87805c0,0.48779 -26.34146,-9.75611 -26.34146,-10.2439c0,0.48779 -87.80488,-89.2683 -87.80488,-89.7561c0,0.48779 130.73171,1.4634 130.73171,0.97561c0,0.48779 2.43902,-159.0244 2.43902,-159.0244z" fill-opacity="null" stroke-opacity="null" stroke-width='{borderwidth}' stroke='{bordercolor}' fill='{fillcolor}'/>
  <path id="AR" class="state" d="m1170.73171,767.31706c0,0 0.4878,89.7561 0.4878,89.2683c0,0.48779 22.43903,23.41462 22.43902,22.92683c0,0.48779 -1.46341,15.60974 -1.46341,15.12195c0,0.48779 78.04878,0.9756 78.04878,0.4878c0,0.48779 60.97561,-124.39026 60.97561,-124.87805c0,0.48779 -3.41463,-4.39026 -3.41463,-4.87805c0,0.48779 -157.07317,1.95121 -157.07317,1.95121z" fill-opacity="null" stroke-opacity="null" stroke-width='{borderwidth}' stroke='{bordercolor}' fill='{fillcolor}'/>
  <path id="LA" class="state" d="m1191.70732,914.14633l-0.48781,110.73172l37.56098,-1.46341l119.02439,32.68293l1.46341,-3.90244l-27.31707,-54.14634l-55.60976,-10.73171l0,-71.70732l-74.63415,-1.46343z" fill-opacity="null" stroke-opacity="null" stroke-width='{borderwidth}' stroke='{bordercolor}' fill='{fillcolor}'/>
  <path id="MS" class="state" d="m1324.87805,830.24389l-39.5122,73.17074l2.43902,70.2439l53.65854,12.68293l9.26829,16.09756l34.63415,0l1.95122,-169.7561l-62.43902,-2.43904z" fill-opacity="null" stroke-opacity="null" stroke-width='{borderwidth}' stroke='{bordercolor}' fill='{fillcolor}'/>
  <path id="AL" class="state" d="m1407.31707,829.75608l-4.87805,171.21952c0,0.4878 24.39025,10.7317 23.90244,10.7317c-0.4878,0 -0.4878,-26.34146 -0.4878,-26.82926c0,0.4878 82.92683,3.41463 82.92683,2.92683c0,0.4878 2.43902,-3.90245 1.95122,-3.90245c-0.48781,0 -3.90244,-2.43902 -3.90244,-2.92682c0,0.4878 -17.07317,-149.7561 -17.07317,-150.2439c0,0.4878 -82.92683,-1.95123 -82.43903,-0.97562z" fill-opacity="null" stroke-opacity="null" stroke-width='{borderwidth}' stroke='{bordercolor}' fill='{fillcolor}'/>
  <path id="GA" class="state" d="m1573.65854,833.65852l78.04878,102.92684l-22.43902,62.43902l-97.56098,-4.39024l-25.36585,-162.92683l67.31707,1.95121z" fill-opacity="null" stroke-opacity="null" stroke-width='{borderwidth}' stroke='{bordercolor}' fill='{fillcolor}'/>
  <path id="IL" class="state" d="m1328.73299,494.8266c0,0 72.98836,2.87356 72.98835,2.87355c0.00001,0 9.19539,20.68962 9.19538,20.68961c0.00001,0 -5.74711,166.09163 -5.74711,166.09162c0.00001,0 -41.95393,22.98847 -41.95394,22.98846c0.00001,0.00001 -70.68951,-103.44807 -70.68951,-103.44807c0.00001,0 -8.04595,-31.03442 -8.04596,-31.03442c0.00001,0 44.25279,-78.16076 44.25279,-78.16076z" fill-opacity="null" stroke-opacity="null" stroke-width='{borderwidth}' stroke='{bordercolor}' fill='{fillcolor}'/>
  <path id="IN" class="state" d="m1430.45693,537.92997c0,0 27.58615,-13.21836 27.58614,-13.21837c0.00001,0 54.5976,0 54.59759,0c0.00001,0 -0.5747,106.32163 -0.57471,106.32163c0.00001,0 -33.90797,36.78154 -33.90798,36.78154c0.00001,0 -47.70105,4.02299 -47.70105,4.02298c0.00001,0 0.00001,-133.90778 0.00001,-133.90778z" fill-opacity="null" stroke-opacity="null" stroke-width='{borderwidth}' stroke='{bordercolor}' fill='{fillcolor}'/>
  <path id="OH" class="state" d="m1533.33029,522.98747l35.6321,0l10.34481,18.39077l59.19528,-4.02298l33.90798,-9.7701l-0.57471,63.79298l-68.96538,65.51711l-69.54009,-25.86202l0.00001,-108.04576z" fill-opacity="null" stroke-opacity="null" stroke-width='{borderwidth}' stroke='{bordercolor}' fill='{fillcolor}'/>
  <path id="PA" class="state" d="m1690.80124,511.49324c0,0 1.14942,85.0573 1.14941,85.0573c0.00001,0 166.09164,2.87356 166.09162,2.87356c0.00001,0 5.74713,-3.44826 5.74713,-4.02298c0,-0.57471 -1.14942,-42.52865 -1.14944,-42.52866c0.00001,0 20.68963,-23.56317 20.68961,-23.56317c0.00001,0 -22.41374,-17.81605 -22.41375,-17.81606c0.00001,0 -170.11459,0 -170.11459,0z" fill-opacity="null" stroke-opacity="null" stroke-width='{borderwidth}' stroke='{bordercolor}' fill='{fillcolor}'/>
  <path id="NY" class="state" d="m1942.52488,298.84998l0.5747,241.37883l-14.36779,-1.72413l-59.19528,-42.52865l-140.22961,1.14942l-0.57471,-4.59769l25.28731,-12.64365l-1.14942,-27.58615l50.57461,0.57471l13.79308,5.1724l37.35625,-24.13788l-1.14942,-37.93096l-10.34481,-9.7701l37.35625,-87.35615l62.06885,0z" fill-opacity="null" stroke-opacity="null" stroke-width='{borderwidth}' stroke='{bordercolor}' fill='{fillcolor}'/>
  <path id="KY" class="state" d="m1527.58317,649.99871l67.81595,27.58615l17.81606,23.56317l-58.62057,40.2298l-184.48239,-2.29885l5.1724,-12.64365l53.44817,-29.31029l62.64355,-10.34481l36.20683,-36.78153z" fill-opacity="null" stroke-opacity="null" stroke-width='{borderwidth}' stroke='{bordercolor}' fill='{fillcolor}'/>
  <path id="TN" class="state" d="m1359.76742,760.91803l-21.83905,45.97691l196.55133,4.59769l68.39067,-47.12634l-243.10296,-3.44826z" fill-opacity="null" stroke-opacity="null" stroke-width='{borderwidth}' stroke='{bordercolor}' fill='{fillcolor}'/>
  <path id="WV" class="state" d="m1613.21519,670.11361l30.4597,37.35625l26.43673,-5.74712l33.33326,-37.93096l21.26433,0l8.62067,-15.51721l-28.73557,-1.14942l-1.14943,-28.16087l-36.20682,-1.14942l-54.02287,52.29875z" fill-opacity="null" stroke-opacity="null" stroke-width='{borderwidth}' stroke='{bordercolor}' fill='{fillcolor}'/>
  <path id="MD" class="state" d="m1723.5598,614.94131c0,0 125.86182,4.02298 125.8618,4.02297c0.00002,0.00001 -1.72412,72.98837 -1.72413,72.98837c0.00001,0 52.29876,1.14942 52.29875,1.14942c0.00001,0 9.7701,7.47125 9.77009,7.47125c0.00001,0 -32.75854,33.33327 -32.75855,33.33326c0.00001,0.00001 -25.86201,-0.5747 -25.86202,-0.57471c0.00001,0.00001 -29.31028,-77.58604 -29.31029,-77.58605c0.00001,0.00001 -27.58614,-24.71259 -27.58615,-24.71259c0.00001,0 -70.6895,-0.57471 -70.68951,-0.57472c0.00001,0.00001 0.00001,-15.5172 0.00001,-15.5172z" fill-opacity="null" stroke-opacity="null" stroke-width='{borderwidth}' stroke='{bordercolor}' fill='{fillcolor}'/>
  <path id="DE" class="state" d="m1867.23767,619.539l4.59768,56.89643l78.16077,-0.57471l-1.14943,-29.31028l-54.02288,-6.89654c0.00002,0 -17.81604,-20.1149 -17.81604,-20.68961l-9.7701,0.57471z" fill-opacity="null" stroke-opacity="null" stroke-width='{borderwidth}' stroke='{bordercolor}' fill='{fillcolor}'/>
  <path id="NJ" class="state" d="m1901.14565,542.52766c0,0 20.1149,14.36779 20.11489,14.36778c0.00001,0 33.90799,39.6551 33.90798,39.65509c0.00001,0 1.72415,32.75856 1.72413,32.75856c0.00001,0 -45.97691,-6.32182 -45.97692,-6.32183c0.00001,0 -23.56316,-24.13788 -23.56317,-24.13788c0.00001,0 -1.14941,-36.20682 -1.14942,-36.20682c0.00001,0 14.94251,-20.1149 14.94251,-20.1149z" fill-opacity="null" stroke-opacity="null" stroke-width='{borderwidth}' stroke='{bordercolor}' fill='{fillcolor}'/>
  <path id="VA" class="state" d="m1781.03095,653.44698c0,0 -22.98846,0.57471 -22.98847,0.57471c0.00001,0 -26.43672,32.18385 -26.43673,32.18384c0.00001,0 -16.66662,-0.57471 -16.66663,-0.57471c0.00001,0 -28.73556,33.33327 -28.73557,33.33327c0.00001,0.00001 -58.62056,16.09193 -58.62057,16.09192c0.00001,0.00001 -8.04595,-9.77009 -8.04596,-9.7701c0.00001,0.00001 -25.86201,16.09193 -25.86202,16.09192c0.00001,0.00001 240.80413,5.74712 240.80412,5.74711c0.00001,0.00001 -17.81604,-42.52865 -17.81606,-42.52865c0.00001,0.00001 -12.64364,-38.50567 -12.64365,-38.50567c0.00001,0 -22.98845,-12.64365 -22.98845,-12.64365z" fill-opacity="null" stroke-opacity="null" stroke-width='{borderwidth}' stroke='{bordercolor}' fill='{fillcolor}'/>
  <path id="NC" class="state" d="m1828.732,765.51572l2.29883,47.12634l-79.31019,34.48269l-40.2298,-35.63211l-139.08018,0l70.1148,-47.70105l186.20654,1.72414z" fill-opacity="null" stroke-opacity="null" stroke-width='{borderwidth}' stroke='{bordercolor}' fill='{fillcolor}'/>
  <path id="DC" class="state" d="m1859.76642,760.91803l78.16075,0.57471l1.14942,32.75856l-78.16076,1.14942l-1.14941,-34.48268z" fill-opacity="null" stroke-opacity="null" stroke-width='{borderwidth}' stroke='{bordercolor}' fill='{fillcolor}'/>
  <path id="CT" class="state" d="m1960.91565,505.17141c0,0 66.66653,2.29885 66.66652,2.29884c0.00001,0 -1.14941,60.34471 -1.14942,60.34471c0.00001,0 -30.4597,-1.14942 -30.45971,-1.14942c0.00001,0 -35.6321,-27.58615 -35.63211,-27.58615c0.00001,0 0.57472,-33.90797 0.57472,-33.90797z" fill-opacity="null" stroke-opacity="null" stroke-width='{borderwidth}' stroke='{bordercolor}' fill='{fillcolor}'/>
  <path id="VT" class="state" d="m2021.26036,303.44767l-0.00001,102.87336l-18.39077,29.885l-42.52865,-0.57471l0.57471,-131.03422l60.34472,-1.14942z" fill-opacity="null" stroke-opacity="null" stroke-width='{borderwidth}' stroke='{bordercolor}' fill='{fillcolor}'/>
  <path id="NH" class="state" d="m2041.37526,300.57412l23.56316,-0.57471l17.81606,110.34461l27.58615,23.56317l-8.62067,9.7701l-9.19538,-8.62067l-63.21826,2.87356l14.9425,-38.50567l-2.87354,-98.85038z" fill-opacity="null" stroke-opacity="null" stroke-width='{borderwidth}' stroke='{bordercolor}' fill='{fillcolor}'/>
  <path id="ME" class="state" d="m2122.40958,229.8846l59.76998,-0.57471l-3.44827,97.12624l8.62067,12.06894l16.09192,66.09182l-79.31019,16.09192l-24.71259,-20.1149l-16.66663,-118.39057l39.65511,-52.29874z" fill-opacity="null" stroke-opacity="null" stroke-width='{borderwidth}' stroke='{bordercolor}' fill='{fillcolor}'/>
  <path id="MA" class="state" d="m1959.76623,453.44738l127.58594,2.29884l6.32182,9.77009l41.37923,8.04597l38.50567,52.29874l18.96548,1.72414l0,40.2298l-79.31019,2.29885l-0.57471,-56.32173c0.00002,0 -34.48267,-23.56317 -34.48267,-24.13788c0,-0.57471 -118.96529,-2.87356 -118.9653,-2.87356l0.57473,-33.33326z" fill-opacity="null" stroke-opacity="null" stroke-width='{borderwidth}' stroke='{bordercolor}' fill='{fillcolor}'/>
  <path id="RI" class="state" d="m2045.97295,508.61968c0,0 29.885,0 29.88498,0c0.00001,0 21.26434,16.09193 21.26433,16.09192c0.00001,0 -0.5747,47.12635 -0.57471,47.12634c0.00001,0 -52.87344,-2.87355 -52.87346,-2.87356c0.00001,0 2.29886,-60.3447 2.29886,-60.3447z" fill-opacity="null" stroke-opacity="null" stroke-width='{borderwidth}' stroke='{bordercolor}' fill='{fillcolor}'/>
  <path id="SC" class="state" d="m1600.57154,833.90639l103.44806,1.14942c0.00001,0 29.885,31.03443 29.885,30.45971c0,-0.57471 -40.80451,37.93096 -40.80452,37.93096c0.00001,0 -31.60912,12.64366 -31.60914,12.64365l-60.9194,-82.18374z" fill-opacity="null" stroke-opacity="null" stroke-width='{borderwidth}' stroke='{bordercolor}' fill='{fillcolor}'/>
  <path id="FL" class="state" d="m1446.54885,1004.021l64.36768,-0.00001l0.57471,8.04596l119.54,2.29885l23.56317,45.97692l-5.17241,36.78153l32.18385,60.34471l-1.72414,41.95394l-30.45971,6.89654l-37.35624,-37.93096c0.00001,0.00001 -54.59759,-123.56297 -55.1723,-123.56297c-0.57471,0 -112.06874,-29.88499 -112.06875,-29.885l1.72414,-10.91951z" fill-opacity="null" stroke-opacity="null" stroke-width='{borderwidth}' stroke='{bordercolor}' fill='{fillcolor}'/>
  <path id="AK" class="state" d="m154.59739,981.03254l31.60914,-11.49424l26.43672,-1.14942l82.75846,17.24134c0,0.00001 11.49423,93.67798 10.91952,93.67798c-0.57471,0 66.09182,54.5976 66.09182,54.59759c0,0.00001 -17.24134,10.34481 -17.24134,10.34481c0,0 -63.79298,-37.35624 -63.79298,-37.35625c0,0.00001 -67.24124,-1.72413 -67.24125,-1.72414c0.00001,0.00001 -40.80451,33.90799 -41.37922,33.90798c0.57471,0.00001 -69.5401,20.68962 -70.11481,20.68962c0.57471,0 -8.04596,-10.3448 -8.62067,-10.34481c0.57471,0.00001 54.02288,-26.43672 53.44817,-26.43673c0.57471,0.00001 -14.9425,-35.05739 -15.51721,-35.0574c0.57471,0.00001 26.43673,-18.96547 25.86202,-18.96548c0.57471,0.00001 -28.16087,-33.90797 -28.73558,-33.90798c0.57471,0.00001 29.885,-17.81605 29.31029,-17.81606l-13.79308,-36.20681z" fill-opacity="null" stroke-opacity="null" stroke-width='{borderwidth}' stroke='{bordercolor}' fill='{fillcolor}'/>
  <path id="HI1" class="HI" class="state" d="m425.86122,1055.74503l17.81606,-6.89654l11.49423,8.62067l1.14942,17.81606l-14.9425,2.87355c0,0.00001 -11.49423,-3.44826 -11.49423,-4.02297l-4.02298,-18.39077z" fill-opacity="null" stroke-opacity="null" stroke-width='{borderwidth}' stroke='{bordercolor}' fill='{fillcolor}'/>
  <path id="HI2" class="HI" class="state" d="m474.13699,1065.51513c0,0 25.86202,-5.74712 25.86202,-5.74712c0,0.00001 18.96548,19.5402 18.96548,19.5402c0,0 -5.1724,10.34481 -5.74712,10.34481c-0.57471,0 -16.66663,-9.7701 -16.66664,-9.7701c0,0.00001 -13.79307,3.44828 -13.79308,3.44827c0,0.00001 -8.62067,-17.81605 -8.62067,-17.81605z" fill-opacity="null" stroke-opacity="null" stroke-width='{borderwidth}' stroke='{bordercolor}' fill='{fillcolor}'/>
  <path id="HI3" class="HI" class="state" d="m537.92997,1082.18176l36.20682,6.32182l-4.02298,12.06894l-33.33327,-8.62067l1.14943,-9.77009z" fill-opacity="null" stroke-opacity="null" stroke-width='{borderwidth}' stroke='{bordercolor}' fill='{fillcolor}'/>
  <path id="HI4" class="HI" class="state" d="m577.58506,1094.82541l9.19538,0.5747l-0.57471,6.89654l4.59769,1.72413l2.87356,-6.89654l12.06894,9.7701l-4.59769,12.06894l-10.91952,1.72413l-4.02298,-6.89654l-4.59769,-2.29885l-1.14942,4.02298l-8.04596,-3.44827l5.17241,-17.24134z" fill-opacity="null" stroke-opacity="null" stroke-width='{borderwidth}' stroke='{bordercolor}' fill='{fillcolor}'/>
  <path id="HI5" class="HI" class="state" d="m610.34362,1123.56099c0,0 31.03442,22.98846 31.03441,22.98845c0.00001,0.00001 -33.90797,20.11491 -34.48268,19.5402c-0.57472,-0.57471 -10.34481,-23.56317 -10.34481,-23.56318c0,0.00001 -8.62067,-1.72413 -8.62068,-1.72413c0.00001,0 -2.29884,-4.02298 -2.29884,-4.02298c0,0 24.7126,-13.21836 24.7126,-13.21836z" fill-opacity="null" stroke-opacity="null" stroke-width='{borderwidth}' stroke='{bordercolor}' fill='{fillcolor}'/>
 </g>
</svg>
